# MagicaVoxel @ Ephtracy

# group
o 

# material
mtllib openHandvox.mtl
usemtl palette

# normals
vn -1 0 0
vn 1 0 0
vn 0 0 1
vn 0 0 -1
vn 0 -1 0
vn 0 1 0

# texcoords
vt 0.0371094 0.5
vt 0.904297 0.5
vt 0.982422 0.5
vt 0.994141 0.5

# verts
v -0.2 0.2 0.6
v -0.2 0.2 0.3
v -0.2 0.2 0.2
v -0.2 0.3 -0.4
v -0.2 0.3 -0.8
v -0.2 0.6 0.6
v -0.2 0.6 0.3
v -0.2 0.6 0.2
v -0.2 0.6 -0.4
v -0.2 0.6 -0.8
v -0.1 0.3 0.2
v -0.1 0.3 -0.1
v -0.1 0.4 -0.1
v -0.1 0.4 -0.4
v -0.1 0.5 0.2
v -0.1 0.5 -0.4
v 0.1 0.3 -0.5
v 0.1 0.3 -0.8
v 0.1 0.6 -0.5
v 0.1 0.6 -0.8
v -0.1 0.3 -0.5
v -0.1 0.3 -0.8
v -0.1 0.6 -0.5
v -0.1 0.6 -0.8
v 0.1 0.3 0.2
v 0.1 0.3 -0.1
v 0.1 0.4 -0.1
v 0.1 0.4 -0.4
v 0.1 0.5 0.2
v 0.1 0.5 -0.4
v 0.2 0.2 0.6
v 0.2 0.2 0.3
v 0.2 0.2 0.2
v 0.2 0.3 -0.4
v 0.2 0.3 -0.8
v 0.2 0.6 0.6
v 0.2 0.6 0.3
v 0.2 0.6 0.2
v 0.2 0.6 -0.4
v 0.2 0.6 -0.8
v -0.2 0.2 0.6
v -0.2 0.6 0.6
v -0.1 0.3 0.6
v -0.1 0.5 0.6
v 0.1 0.3 0.6
v 0.1 0.5 0.6
v 0.2 0.2 0.6
v 0.2 0.6 0.6
v -0.2 0.3 -0.4
v -0.2 0.6 -0.4
v -0.1 0.4 -0.4
v -0.1 0.5 -0.4
v 0.1 0.4 -0.4
v 0.1 0.5 -0.4
v 0.2 0.3 -0.4
v 0.2 0.6 -0.4
v -0.2 0.2 0.2
v -0.2 0.6 0.2
v -0.1 0.3 0.2
v -0.1 0.5 0.2
v 0.1 0.3 0.2
v 0.1 0.5 0.2
v 0.2 0.2 0.2
v 0.2 0.6 0.2
v -0.1 0.3 -0.1
v -0.1 0.4 -0.1
v 0.1 0.3 -0.1
v 0.1 0.4 -0.1
v -0.1 0.3 -0.5
v -0.1 0.6 -0.5
v 0.1 0.3 -0.5
v 0.1 0.6 -0.5
v -0.2 0.3 -0.8
v -0.2 0.6 -0.8
v -0.1 0.3 -0.8
v -0.1 0.6 -0.8
v 0.1 0.3 -0.8
v 0.1 0.6 -0.8
v 0.2 0.3 -0.8
v 0.2 0.6 -0.8
v -0.2 0.2 0.6
v 0.2 0.2 0.6
v -0.2 0.2 0.3
v 0.2 0.2 0.3
v -0.2 0.2 0.2
v 0.2 0.2 0.2
v -0.1 0.3 0.2
v 0.1 0.3 0.2
v -0.1 0.3 -0.1
v 0.1 0.3 -0.1
v -0.2 0.3 -0.4
v 0.2 0.3 -0.4
v -0.1 0.3 -0.5
v 0.1 0.3 -0.5
v -0.2 0.3 -0.8
v -0.1 0.3 -0.8
v 0.1 0.3 -0.8
v 0.2 0.3 -0.8
v -0.1 0.4 -0.1
v 0.1 0.4 -0.1
v -0.1 0.4 -0.4
v 0.1 0.4 -0.4
v -0.1 0.5 0.2
v 0.1 0.5 0.2
v -0.1 0.5 -0.4
v 0.1 0.5 -0.4
v -0.2 0.6 0.6
v 0.2 0.6 0.6
v -0.2 0.6 0.3
v 0.2 0.6 0.3
v -0.2 0.6 0.2
v 0.2 0.6 0.2
v -0.2 0.6 -0.4
v 0.2 0.6 -0.4
v -0.1 0.6 -0.5
v 0.1 0.6 -0.5
v -0.2 0.6 -0.8
v -0.1 0.6 -0.8
v 0.1 0.6 -0.8
v 0.2 0.6 -0.8

# faces
f 6/2/1 2/2/1 1/2/1
f 7/4/1 3/4/1 2/4/1
f 7/2/1 2/2/1 6/2/1
f 8/4/1 3/4/1 7/4/1
f 9/1/1 5/1/1 4/1/1
f 10/1/1 5/1/1 9/1/1
f 13/1/1 12/1/1 11/1/1
f 15/1/1 13/1/1 11/1/1
f 15/1/1 14/1/1 13/1/1
f 16/1/1 14/1/1 15/1/1
f 19/1/1 18/1/1 17/1/1
f 20/1/1 18/1/1 19/1/1
f 21/1/2 22/1/2 23/1/2
f 23/1/2 22/1/2 24/1/2
f 25/1/2 26/1/2 27/1/2
f 25/1/2 27/1/2 29/1/2
f 27/1/2 28/1/2 29/1/2
f 29/1/2 28/1/2 30/1/2
f 31/2/2 32/2/2 36/2/2
f 32/4/2 33/4/2 37/4/2
f 36/2/2 32/2/2 37/2/2
f 37/4/2 33/4/2 38/4/2
f 34/1/2 35/1/2 39/1/2
f 39/1/2 35/1/2 40/1/2
f 43/2/3 42/2/3 41/2/3
f 44/2/3 42/2/3 43/2/3
f 45/2/3 43/2/3 41/2/3
f 45/3/3 44/3/3 43/3/3
f 46/2/3 42/2/3 44/2/3
f 46/3/3 44/3/3 45/3/3
f 47/2/3 45/2/3 41/2/3
f 47/2/3 46/2/3 45/2/3
f 48/2/3 42/2/3 46/2/3
f 48/2/3 46/2/3 47/2/3
f 51/1/3 50/1/3 49/1/3
f 52/1/3 50/1/3 51/1/3
f 53/1/3 51/1/3 49/1/3
f 54/1/3 50/1/3 52/1/3
f 55/1/3 53/1/3 49/1/3
f 55/1/3 54/1/3 53/1/3
f 56/1/3 50/1/3 54/1/3
f 56/1/3 54/1/3 55/1/3
f 57/4/4 58/4/4 59/4/4
f 59/4/4 58/4/4 60/4/4
f 57/4/4 59/4/4 61/4/4
f 60/4/4 58/4/4 62/4/4
f 57/4/4 61/4/4 63/4/4
f 61/4/4 62/4/4 63/4/4
f 62/4/4 58/4/4 64/4/4
f 63/4/4 62/4/4 64/4/4
f 65/1/4 66/1/4 67/1/4
f 67/1/4 66/1/4 68/1/4
f 69/1/4 70/1/4 71/1/4
f 71/1/4 70/1/4 72/1/4
f 73/1/4 74/1/4 75/1/4
f 75/1/4 74/1/4 76/1/4
f 77/1/4 78/1/4 79/1/4
f 79/1/4 78/1/4 80/1/4
f 83/2/5 82/2/5 81/2/5
f 84/2/5 82/2/5 83/2/5
f 85/4/5 84/4/5 83/4/5
f 86/4/5 84/4/5 85/4/5
f 89/1/5 88/1/5 87/1/5
f 90/1/5 88/1/5 89/1/5
f 93/1/5 92/1/5 91/1/5
f 94/1/5 92/1/5 93/1/5
f 95/1/5 93/1/5 91/1/5
f 96/1/5 93/1/5 95/1/5
f 97/1/5 92/1/5 94/1/5
f 98/1/5 92/1/5 97/1/5
f 101/1/5 100/1/5 99/1/5
f 102/1/5 100/1/5 101/1/5
f 103/1/6 104/1/6 105/1/6
f 105/1/6 104/1/6 106/1/6
f 107/2/6 108/2/6 109/2/6
f 109/2/6 108/2/6 110/2/6
f 109/4/6 110/4/6 111/4/6
f 111/4/6 110/4/6 112/4/6
f 113/1/6 114/1/6 115/1/6
f 115/1/6 114/1/6 116/1/6
f 113/1/6 115/1/6 117/1/6
f 117/1/6 115/1/6 118/1/6
f 116/1/6 114/1/6 119/1/6
f 119/1/6 114/1/6 120/1/6
